<svg xmlns="http://www.w3.org/2000/svg" viewBox="0 0 64 64" fill="none">
  <rect width="64" height="64" fill="#5E1B2C"/>
  <g transform="translate(5 5) scale(.84375)">
    <rect width="64" height="64" rx="18" fill="#7A263A"/>
    <path d="M32 9 54 32 32 55 10 32 32 9Z" stroke="#C99A32" stroke-width="2.2"/>
    <path d="M21 20v24M21 21h11.5c5.2 0 8.5 2.7 8.5 6.5 0 3.1-2 5.4-5.4 6.1 4 .6 6.4 3.1 6.4 6.4 0 4.3-3.6 7-9.3 7H21" stroke="#FFF9EF" stroke-width="4" stroke-linecap="round" stroke-linejoin="round"/>
    <path d="M29 26h3.3c2.2 0 3.5.9 3.5 2.5s-1.3 2.5-3.5 2.5H29M29 37h4.2c2.5 0 4 1 4 2.8 0 1.8-1.5 2.8-4 2.8H29" stroke="#C99A32" stroke-width="2" stroke-linecap="round" stroke-linejoin="round"/>
    <circle cx="32" cy="32" r="2.2" fill="#C99A32"/>
  </g>
</svg>